<?xml version="1.0" standalone="no"?>
<!DOCTYPE svg PUBLIC "-//W3C//DTD SVG 20010904//EN"
 "http://www.w3.org/TR/2001/REC-SVG-20010904/DTD/svg10.dtd">
<svg version="1.0" xmlns="http://www.w3.org/2000/svg"
 width="192.000000pt" height="192.000000pt" viewBox="0 0 192.000000 192.000000"
 preserveAspectRatio="xMidYMid meet">
<metadata>
Created by potrace 1.14, written by Peter Selinger 2001-2017
</metadata>
<g transform="translate(0.000000,192.000000) scale(0.100000,-0.100000)"
fill="#000000" stroke="none">
<path d="M1195 1494 c-22 -25 -44 -56 -48 -70 -5 -13 -14 -24 -20 -24 -5 0 -7
-3 -4 -6 3 -4 1 -16 -5 -28 -7 -12 -13 -74 -14 -151 -1 -71 -2 -138 -3 -147
-1 -16 -13 -18 -110 -18 l-109 0 3 68 c1 37 6 103 10 147 12 128 13 128 -16
144 -24 13 -31 13 -73 -3 -25 -10 -51 -27 -58 -39 -13 -26 -20 -171 -21 -462
0 -271 1 -285 29 -297 28 -13 114 -1 115 15 1 7 3 62 5 122 2 61 5 135 7 165
l2 55 103 1 c67 1 105 -3 108 -10 2 -6 6 -76 8 -156 3 -80 8 -160 11 -177 6
-32 5 -33 -61 -64 -43 -21 -72 -42 -83 -60 -9 -16 -19 -29 -23 -29 -5 0 -8
-11 -8 -25 0 -27 39 -74 62 -76 7 -1 25 -2 40 -3 35 -4 117 25 156 54 44 33
54 64 57 180 4 139 16 491 21 610 2 52 4 112 5 132 0 21 4 40 8 42 4 3 24 -10
44 -29 32 -30 37 -40 37 -79 0 -25 -4 -56 -10 -70 -5 -14 -6 -26 -2 -26 12 0
32 62 32 98 0 44 -13 71 -62 127 -23 28 -52 70 -63 93 -11 23 -22 42 -25 42
-3 0 -23 -21 -45 -46z"/>
<path d="M575 773 c-36 -19 -31 -14 -39 -40 -15 -47 63 -84 96 -45 29 33 28
60 -1 81 -24 18 -29 18 -56 4z"/>
</g>
</svg>
